<?xml version="1.0" encoding="UTF-8" standalone="no"?>
<svg
   xmlns:dc="http://purl.org/dc/elements/1.1/"
   xmlns:cc="http://creativecommons.org/ns#"
   xmlns:rdf="http://www.w3.org/1999/02/22-rdf-syntax-ns#"
   xmlns:svg="http://www.w3.org/2000/svg"
   xmlns="http://www.w3.org/2000/svg"
   xmlns:sodipodi="http://sodipodi.sourceforge.net/DTD/sodipodi-0.dtd"
   xmlns:inkscape="http://www.inkscape.org/namespaces/inkscape"
   width="171.225mm"
   height="131.197mm"
   viewBox="0.0 0.0 171.225 131.197"
   preserveAspectRatio="none"
   version="1.1"
   id="svg354"
   sodipodi:docname="basic_dimensions-Model.svg"
   inkscape:version="0.92.4 (5da689c313, 2019-01-14)">
  <metadata
     id="metadata360">
    <rdf:RDF>
      <cc:Work
         rdf:about="">
        <dc:format>image/svg+xml</dc:format>
        <dc:type
           rdf:resource="http://purl.org/dc/dcmitype/StillImage" />
      </cc:Work>
    </rdf:RDF>
  </metadata>
  <defs
     id="defs358" />
  <sodipodi:namedview
     pagecolor="#ffffff"
     bordercolor="#666666"
     borderopacity="1"
     objecttolerance="10"
     gridtolerance="10"
     guidetolerance="10"
     inkscape:pageopacity="0"
     inkscape:pageshadow="2"
     inkscape:window-width="1920"
     inkscape:window-height="1057"
     id="namedview356"
     showgrid="false"
     inkscape:zoom="0.87769501"
     inkscape:cx="-73.602767"
     inkscape:cy="168.36415"
     inkscape:window-x="-8"
     inkscape:window-y="-8"
     inkscape:window-maximized="1"
     inkscape:current-layer="svg354" />
  <title
     id="title2">C:\Users\George\Desktop\10th Semester\5_smart_fixture\detailed\pictures\basic_dimensions.DWG</title>
  <desc
     id="desc4">Produce by DWG to SVG Converter MX</desc>
  <path
     d="M45.15 22.28L0.32 22.28"
     fill="none"
     stroke="black"
     stroke-width="0.5000"
     id="path30"
     style="stroke-width:0.13229166;stroke-miterlimit:4;stroke-dasharray:none" />
  <path
     d="M0.32 22.28L0.32 23.38"
     fill="none"
     stroke="black"
     stroke-width="0.5000"
     id="path32"
     style="stroke-width:0.13229166;stroke-miterlimit:4;stroke-dasharray:none" />
  <path
     d="M45.15 23.38L45.15 22.28"
     fill="none"
     stroke="black"
     stroke-width="0.5000"
     id="path34"
     style="stroke-width:0.13229166;stroke-miterlimit:4;stroke-dasharray:none" />
  <path
     d="M0.32 23.38L45.15 23.38"
     fill="none"
     stroke="black"
     stroke-width="0.5000"
     id="path36"
     style="stroke-width:0.13229166;stroke-miterlimit:4;stroke-dasharray:none" />
  <path
     d="M45.15 111.95L0.32 111.95"
     fill="none"
     stroke="black"
     stroke-width="0.5000"
     id="path38"
     style="stroke-width:0.13229166;stroke-miterlimit:4;stroke-dasharray:none" />
  <path
     d="M0.32 113.05L45.15 113.05"
     fill="none"
     stroke="black"
     stroke-width="0.5000"
     id="path40"
     style="stroke-width:0.13229166;stroke-miterlimit:4;stroke-dasharray:none" />
  <path
     d="M45.15 113.05L45.15 111.95"
     fill="none"
     stroke="black"
     stroke-width="0.5000"
     id="path42"
     style="stroke-width:0.13229166;stroke-miterlimit:4;stroke-dasharray:none" />
  <path
     d="M0.32 111.95L0.32 113.05"
     fill="none"
     stroke="black"
     stroke-width="0.5000"
     id="path44"
     style="stroke-width:0.13229166;stroke-miterlimit:4;stroke-dasharray:none" />
  <path
     d="M17.05 23.38L17.05 111.95"
     fill="none"
     stroke="black"
     stroke-width="0.5000"
     id="path46"
     style="stroke-width:0.13229166;stroke-miterlimit:4;stroke-dasharray:none" />
  <path
     d="M17.45 111.95L17.45 23.38"
     fill="none"
     stroke="black"
     stroke-width="0.5000"
     id="path48"
     style="stroke-width:0.13229166;stroke-miterlimit:4;stroke-dasharray:none" />
  <path
     d="M12.67 23.38L12.67 111.95"
     fill="none"
     stroke="black"
     stroke-width="0.5000"
     id="path50"
     style="stroke-width:0.13229166;stroke-miterlimit:4;stroke-dasharray:none" />
  <path
     d="M13.07 111.95L13.07 23.38"
     fill="none"
     stroke="black"
     stroke-width="0.5000"
     id="path52"
     style="stroke-width:0.13229166;stroke-miterlimit:4;stroke-dasharray:none" />
  <path
     d="M38.97 23.38L38.97 111.95"
     fill="none"
     stroke="black"
     stroke-width="0.5000"
     id="path54"
     style="stroke-width:0.13229166;stroke-miterlimit:4;stroke-dasharray:none" />
  <path
     d="M39.37 111.95L39.37 23.38"
     fill="none"
     stroke="black"
     stroke-width="0.5000"
     id="path56"
     style="stroke-width:0.13229166;stroke-miterlimit:4;stroke-dasharray:none" />
  <path
     d="M25.82 23.38L25.82 111.95"
     fill="none"
     stroke="black"
     stroke-width="0.5000"
     id="path58"
     style="stroke-width:0.13229166;stroke-miterlimit:4;stroke-dasharray:none" />
  <path
     d="M26.22 111.95L26.22 23.38"
     fill="none"
     stroke="black"
     stroke-width="0.5000"
     id="path60"
     style="stroke-width:0.13229166;stroke-miterlimit:4;stroke-dasharray:none" />
  <path
     d="M3.9 23.38L3.9 111.95"
     fill="none"
     stroke="black"
     stroke-width="0.5000"
     id="path62"
     style="stroke-width:0.13229166;stroke-miterlimit:4;stroke-dasharray:none" />
  <path
     d="M4.3 111.95L4.3 23.38"
     fill="none"
     stroke="black"
     stroke-width="0.5000"
     id="path64"
     style="stroke-width:0.13229166;stroke-miterlimit:4;stroke-dasharray:none" />
  <path
     d="M34.99 111.95L34.99 23.38"
     fill="none"
     stroke="black"
     stroke-width="0.5000"
     id="path66"
     style="stroke-width:0.13229166;stroke-miterlimit:4;stroke-dasharray:none" />
  <path
     d="M34.59 23.38L34.59 111.95"
     fill="none"
     stroke="black"
     stroke-width="0.5000"
     id="path68"
     style="stroke-width:0.13229166;stroke-miterlimit:4;stroke-dasharray:none" />
  <path
     d="M30.6 111.95L30.6 23.38"
     fill="none"
     stroke="black"
     stroke-width="0.5000"
     id="path70"
     style="stroke-width:0.13229166;stroke-miterlimit:4;stroke-dasharray:none" />
  <path
     d="M30.21 23.38L30.21 111.95"
     fill="none"
     stroke="black"
     stroke-width="0.5000"
     id="path72"
     style="stroke-width:0.13229166;stroke-miterlimit:4;stroke-dasharray:none" />
  <path
     d="M21.84 111.95L21.84 23.38"
     fill="none"
     stroke="black"
     stroke-width="0.5000"
     id="path74"
     style="stroke-width:0.13229166;stroke-miterlimit:4;stroke-dasharray:none" />
  <path
     d="M21.44 23.38L21.44 111.95"
     fill="none"
     stroke="black"
     stroke-width="0.5000"
     id="path76"
     style="stroke-width:0.13229166;stroke-miterlimit:4;stroke-dasharray:none" />
  <path
     d="M8.69 111.95L8.69 23.38"
     fill="none"
     stroke="black"
     stroke-width="0.5000"
     id="path78"
     style="stroke-width:0.13229166;stroke-miterlimit:4;stroke-dasharray:none" />
  <path
     d="M8.29 23.38L8.29 111.95"
     fill="none"
     stroke="black"
     stroke-width="0.5000"
     id="path80"
     style="stroke-width:0.13229166;stroke-miterlimit:4;stroke-dasharray:none" />
  <path
     d="M42.16 23.38L42.16 111.95"
     fill="none"
     stroke="black"
     stroke-width="0.5000"
     id="path82"
     style="stroke-width:0.13229166;stroke-miterlimit:4;stroke-dasharray:none" />
  <path
     d="M3.31 111.95L3.31 23.38"
     fill="none"
     stroke="black"
     stroke-width="0.5000"
     id="path84"
     style="stroke-width:0.13229166;stroke-miterlimit:4;stroke-dasharray:none" />
  <path
     d="M3.31 22.28L3.31 21.79"
     fill="none"
     stroke="black"
     stroke-width="0.5000"
     id="path86"
     style="stroke-width:0.13229166;stroke-miterlimit:4;stroke-dasharray:none" />
  <path
     d="M3.31 21.79L42.16 21.79"
     fill="none"
     stroke="black"
     stroke-width="0.5000"
     id="path88"
     style="stroke-width:0.13229166;stroke-miterlimit:4;stroke-dasharray:none" />
  <path
     d="M42.16 21.79L42.16 22.28"
     fill="none"
     stroke="black"
     stroke-width="0.5000"
     id="path90"
     style="stroke-width:0.13229166;stroke-miterlimit:4;stroke-dasharray:none" />
  <path
     d="M42.16 113.05L42.16 113.54"
     fill="none"
     stroke="black"
     stroke-width="0.5000"
     id="path92"
     style="stroke-width:0.13229166;stroke-miterlimit:4;stroke-dasharray:none" />
  <path
     d="M42.16 113.54L3.31 113.54"
     fill="none"
     stroke="black"
     stroke-width="0.5000"
     id="path94"
     style="stroke-width:0.13229166;stroke-miterlimit:4;stroke-dasharray:none" />
  <path
     d="M3.31 113.54L3.31 113.05"
     fill="none"
     stroke="black"
     stroke-width="0.5000"
     id="path96"
     style="stroke-width:0.13229166;stroke-miterlimit:4;stroke-dasharray:none" />
  <path
     d="M3.31 15.37L6.6 14.87 6.6 14.87 6.6 15.88 3.31 15.37Z"
     fill-rule="evenodd"
     fill="black"
     id="path98"
     style="stroke-width:0.13229166;stroke-miterlimit:4;stroke-dasharray:none" />
  <path
     d="M42.16 15.37L38.87 15.88 38.87 15.88 38.87 14.87 42.16 15.37Z"
     fill-rule="evenodd"
     fill="black"
     id="path100"
     style="stroke-width:0.13229166;stroke-miterlimit:4;stroke-dasharray:none" />
  <path
     d="M3.31 20.79L3.31 14.38"
     fill="none"
     stroke="black"
     stroke-width="0.5000"
     id="path102"
     style="stroke-width:0.13229166;stroke-miterlimit:4;stroke-dasharray:none" />
  <path
     d="M42.16 20.79L42.16 14.38"
     fill="none"
     stroke="black"
     stroke-width="0.5000"
     id="path104"
     style="stroke-width:0.13229166;stroke-miterlimit:4;stroke-dasharray:none" />
  <path
     d="M3.31 15.37L42.16 15.37"
     fill="none"
     stroke="black"
     stroke-width="0.5000"
     id="path106"
     style="stroke-width:0.13229166;stroke-miterlimit:4;stroke-dasharray:none" />
  <path
     d="M22.73 15.37L71.53 4.74"
     fill="none"
     stroke="black"
     stroke-width="0.5000"
     id="path108"
     style="stroke-width:0.13229166;stroke-miterlimit:4;stroke-dasharray:none" />
  <path
     d="M55.11 113.54L54.6 110.26 54.6 110.26 55.61 110.26 55.11 113.54Z"
     fill-rule="evenodd"
     fill="black"
     id="path110"
     style="stroke-width:0.13229166;stroke-miterlimit:4;stroke-dasharray:none" />
  <path
     d="M55.11 21.79L55.61 25.08 55.61 25.08 54.6 25.08 55.11 21.79Z"
     fill-rule="evenodd"
     fill="black"
     id="path112"
     style="stroke-width:0.13229166;stroke-miterlimit:4;stroke-dasharray:none" />
  <path
     d="M43.16 113.54L56.1 113.54"
     fill="none"
     stroke="black"
     stroke-width="0.5000"
     id="path114"
     style="stroke-width:0.13229166;stroke-miterlimit:4;stroke-dasharray:none" />
  <path
     d="M43.16 21.79L56.1 21.79"
     fill="none"
     stroke="black"
     stroke-width="0.5000"
     id="path116"
     style="stroke-width:0.13229166;stroke-miterlimit:4;stroke-dasharray:none" />
  <path
     d="M55.11 113.54L55.11 21.79"
     fill="none"
     stroke="black"
     stroke-width="0.5000"
     id="path118"
     style="stroke-width:0.13229166;stroke-miterlimit:4;stroke-dasharray:none" />
  <path
     d="M55.11 67.67L70.63 54.32"
     fill="none"
     stroke="black"
     stroke-width="0.5000"
     id="path120"
     style="stroke-width:0.13229166;stroke-miterlimit:4;stroke-dasharray:none" />
  <path
     d="M42.16 15.38L38.87 15.89 38.87 15.89 38.87 14.87 42.16 15.38Z"
     fill-rule="evenodd"
     fill="black"
     id="path122"
     style="stroke-width:0.13229166;stroke-miterlimit:4;stroke-dasharray:none" />
  <path
     d="M45.15 15.38L48.44 14.87 48.44 14.87 48.44 15.89 45.15 15.38Z"
     fill-rule="evenodd"
     fill="black"
     id="path124"
     style="stroke-width:0.13229166;stroke-miterlimit:4;stroke-dasharray:none" />
  <path
     d="M42.16 20.79L42.16 14.38"
     fill="none"
     stroke="black"
     stroke-width="0.5000"
     id="path126"
     style="stroke-width:0.13229166;stroke-miterlimit:4;stroke-dasharray:none" />
  <path
     d="M45.15 21.29L45.15 14.38"
     fill="none"
     stroke="black"
     stroke-width="0.5000"
     id="path128"
     style="stroke-width:0.13229166;stroke-miterlimit:4;stroke-dasharray:none" />
  <path
     d="M42.16 15.38L35.83 15.38"
     fill="none"
     stroke="black"
     stroke-width="0.5000"
     id="path130"
     style="stroke-width:0.13229166;stroke-miterlimit:4;stroke-dasharray:none" />
  <path
     d="M42.16 15.38L45.15 15.38"
     fill="none"
     stroke="black"
     stroke-width="0.5000"
     id="path132"
     style="stroke-width:0.13229166;stroke-miterlimit:4;stroke-dasharray:none" />
  <path
     d="M45.15 15.38L51.48 15.38"
     fill="none"
     stroke="black"
     stroke-width="0.5000"
     id="path134"
     style="stroke-width:0.13229166;stroke-miterlimit:4;stroke-dasharray:none" />
  <path
     d="M43.66 15.38L63.78 19.76"
     fill="none"
     stroke="black"
     stroke-width="0.5000"
     id="path136"
     style="stroke-width:0.13229166;stroke-miterlimit:4;stroke-dasharray:none" />
  <path
     d="M0.32 119.72L3.61 119.21 3.61 119.21 3.61 120.23 0.32 119.72Z"
     fill-rule="evenodd"
     fill="black"
     id="path138"
     style="stroke-width:0.13229166;stroke-miterlimit:4;stroke-dasharray:none" />
  <path
     d="M45.15 119.72L41.86 120.23 41.86 120.23 41.86 119.21 45.15 119.72Z"
     fill-rule="evenodd"
     fill="black"
     id="path140"
     style="stroke-width:0.13229166;stroke-miterlimit:4;stroke-dasharray:none" />
  <path
     d="M0.32 114.04L0.32 120.72"
     fill="none"
     stroke="black"
     stroke-width="0.5000"
     id="path142"
     style="stroke-width:0.13229166;stroke-miterlimit:4;stroke-dasharray:none" />
  <path
     d="M45.15 114.04L45.15 120.72"
     fill="none"
     stroke="black"
     stroke-width="0.5000"
     id="path144"
     style="stroke-width:0.13229166;stroke-miterlimit:4;stroke-dasharray:none" />
  <path
     d="M0.32 119.72L45.15 119.72"
     fill="none"
     stroke="black"
     stroke-width="0.5000"
     id="path146"
     style="stroke-width:0.13229166;stroke-miterlimit:4;stroke-dasharray:none" />
  <path
     d="M 22.729883,119.7217 73.19223,130.8083"
     id="path148"
     inkscape:connector-curvature="0"
     style="fill:none;stroke:#000000;stroke-width:0.13229166;stroke-miterlimit:4;stroke-dasharray:none" />
  <path
     d="M49.71 22.28L50.21 25.57 50.21 25.57 49.2 25.57 49.71 22.28Z"
     fill-rule="evenodd"
     fill="black"
     id="path150"
     style="stroke-width:0.13229166;stroke-miterlimit:4;stroke-dasharray:none" />
  <path
     d="M49.71 113.05L49.2 109.76 49.2 109.76 50.21 109.76 49.71 113.05Z"
     fill-rule="evenodd"
     fill="black"
     id="path152"
     style="stroke-width:0.13229166;stroke-miterlimit:4;stroke-dasharray:none" />
  <path
     d="M46.15 22.28L50.7 22.28"
     fill="none"
     stroke="black"
     stroke-width="0.5000"
     id="path154"
     style="stroke-width:0.13229166;stroke-miterlimit:4;stroke-dasharray:none" />
  <path
     d="M46.15 113.05L50.7 113.05"
     fill="none"
     stroke="black"
     stroke-width="0.5000"
     id="path156"
     style="stroke-width:0.13229166;stroke-miterlimit:4;stroke-dasharray:none" />
  <path
     d="M49.71 22.28L49.71 113.05"
     fill="none"
     stroke="black"
     stroke-width="0.5000"
     id="path158"
     style="stroke-width:0.13229166;stroke-miterlimit:4;stroke-dasharray:none" />
  <path
     d="M49.71 67.67L73.22 81.18"
     fill="none"
     stroke="black"
     stroke-width="0.5000"
     id="path160"
     style="stroke-width:0.13229166;stroke-miterlimit:4;stroke-dasharray:none" />
  <path
     d="M169.31 112.69L170.41 112.69"
     fill="none"
     stroke="black"
     stroke-width="0.5000"
     id="path162"
     style="stroke-width:0.13229166;stroke-miterlimit:4;stroke-dasharray:none" />
  <path
     d="M169.31 23.02L169.31 112.69"
     fill="none"
     stroke="black"
     stroke-width="0.5000"
     id="path164"
     style="stroke-width:0.13229166;stroke-miterlimit:4;stroke-dasharray:none" />
  <path
     d="M170.41 112.69L170.41 23.02"
     fill="none"
     stroke="black"
     stroke-width="0.5000"
     id="path166"
     style="stroke-width:0.13229166;stroke-miterlimit:4;stroke-dasharray:none" />
  <path
     d="M170.41 23.02L169.31 23.02"
     fill="none"
     stroke="black"
     stroke-width="0.5000"
     id="path168"
     style="stroke-width:0.13229166;stroke-miterlimit:4;stroke-dasharray:none" />
  <path
     d="M124.48 112.69L125.58 112.69"
     fill="none"
     stroke="black"
     stroke-width="0.5000"
     id="path170"
     style="stroke-width:0.13229166;stroke-miterlimit:4;stroke-dasharray:none" />
  <path
     d="M124.48 23.02L124.48 112.69"
     fill="none"
     stroke="black"
     stroke-width="0.5000"
     id="path172"
     style="stroke-width:0.13229166;stroke-miterlimit:4;stroke-dasharray:none" />
  <path
     d="M125.58 112.69L125.58 23.02"
     fill="none"
     stroke="black"
     stroke-width="0.5000"
     id="path174"
     style="stroke-width:0.13229166;stroke-miterlimit:4;stroke-dasharray:none" />
  <path
     d="M125.58 23.02L124.48 23.02"
     fill="none"
     stroke="black"
     stroke-width="0.5000"
     id="path176"
     style="stroke-width:0.13229166;stroke-miterlimit:4;stroke-dasharray:none" />
  <path
     d="M169.31 62.67L125.58 62.67"
     fill="none"
     stroke="black"
     stroke-width="0.5000"
     id="path178"
     style="stroke-width:0.13229166;stroke-miterlimit:4;stroke-dasharray:none" />
  <path
     d="M125.58 63.07L169.31 63.07"
     fill="none"
     stroke="black"
     stroke-width="0.5000"
     id="path180"
     style="stroke-width:0.13229166;stroke-miterlimit:4;stroke-dasharray:none" />
  <path
     d="M169.31 71.44L125.58 71.44"
     fill="none"
     stroke="black"
     stroke-width="0.5000"
     id="path182"
     style="stroke-width:0.13229166;stroke-miterlimit:4;stroke-dasharray:none" />
  <path
     d="M125.58 71.84L169.31 71.84"
     fill="none"
     stroke="black"
     stroke-width="0.5000"
     id="path184"
     style="stroke-width:0.13229166;stroke-miterlimit:4;stroke-dasharray:none" />
  <path
     d="M169.31 106.51L125.58 106.51"
     fill="none"
     stroke="black"
     stroke-width="0.5000"
     id="path186"
     style="stroke-width:0.13229166;stroke-miterlimit:4;stroke-dasharray:none" />
  <path
     d="M125.58 106.91L169.31 106.91"
     fill="none"
     stroke="black"
     stroke-width="0.5000"
     id="path188"
     style="stroke-width:0.13229166;stroke-miterlimit:4;stroke-dasharray:none" />
  <path
     d="M169.31 58.29L125.58 58.29"
     fill="none"
     stroke="black"
     stroke-width="0.5000"
     id="path190"
     style="stroke-width:0.13229166;stroke-miterlimit:4;stroke-dasharray:none" />
  <path
     d="M125.58 58.69L169.31 58.69"
     fill="none"
     stroke="black"
     stroke-width="0.5000"
     id="path192"
     style="stroke-width:0.13229166;stroke-miterlimit:4;stroke-dasharray:none" />
  <path
     d="M169.31 49.52L125.58 49.52"
     fill="none"
     stroke="black"
     stroke-width="0.5000"
     id="path194"
     style="stroke-width:0.13229166;stroke-miterlimit:4;stroke-dasharray:none" />
  <path
     d="M125.58 49.92L169.31 49.92"
     fill="none"
     stroke="black"
     stroke-width="0.5000"
     id="path196"
     style="stroke-width:0.13229166;stroke-miterlimit:4;stroke-dasharray:none" />
  <path
     d="M125.58 102.52L169.31 102.52"
     fill="none"
     stroke="black"
     stroke-width="0.5000"
     id="path198"
     style="stroke-width:0.13229166;stroke-miterlimit:4;stroke-dasharray:none" />
  <path
     d="M169.31 102.13L125.58 102.13"
     fill="none"
     stroke="black"
     stroke-width="0.5000"
     id="path200"
     style="stroke-width:0.13229166;stroke-miterlimit:4;stroke-dasharray:none" />
  <path
     d="M169.31 45.14L125.58 45.14"
     fill="none"
     stroke="black"
     stroke-width="0.5000"
     id="path202"
     style="stroke-width:0.13229166;stroke-miterlimit:4;stroke-dasharray:none" />
  <path
     d="M125.58 45.54L169.31 45.54"
     fill="none"
     stroke="black"
     stroke-width="0.5000"
     id="path204"
     style="stroke-width:0.13229166;stroke-miterlimit:4;stroke-dasharray:none" />
  <path
     d="M125.58 98.14L169.31 98.14"
     fill="none"
     stroke="black"
     stroke-width="0.5000"
     id="path206"
     style="stroke-width:0.13229166;stroke-miterlimit:4;stroke-dasharray:none" />
  <path
     d="M169.31 97.74L125.58 97.74"
     fill="none"
     stroke="black"
     stroke-width="0.5000"
     id="path208"
     style="stroke-width:0.13229166;stroke-miterlimit:4;stroke-dasharray:none" />
  <path
     d="M169.31 40.75L125.58 40.75"
     fill="none"
     stroke="black"
     stroke-width="0.5000"
     id="path210"
     style="stroke-width:0.13229166;stroke-miterlimit:4;stroke-dasharray:none" />
  <path
     d="M125.58 41.15L169.31 41.15"
     fill="none"
     stroke="black"
     stroke-width="0.5000"
     id="path212"
     style="stroke-width:0.13229166;stroke-miterlimit:4;stroke-dasharray:none" />
  <path
     d="M125.58 93.76L169.31 93.76"
     fill="none"
     stroke="black"
     stroke-width="0.5000"
     id="path214"
     style="stroke-width:0.13229166;stroke-miterlimit:4;stroke-dasharray:none" />
  <path
     d="M169.31 93.36L125.58 93.36"
     fill="none"
     stroke="black"
     stroke-width="0.5000"
     id="path216"
     style="stroke-width:0.13229166;stroke-miterlimit:4;stroke-dasharray:none" />
  <path
     d="M169.31 36.37L125.58 36.37"
     fill="none"
     stroke="black"
     stroke-width="0.5000"
     id="path218"
     style="stroke-width:0.13229166;stroke-miterlimit:4;stroke-dasharray:none" />
  <path
     d="M125.58 36.77L169.31 36.77"
     fill="none"
     stroke="black"
     stroke-width="0.5000"
     id="path220"
     style="stroke-width:0.13229166;stroke-miterlimit:4;stroke-dasharray:none" />
  <path
     d="M125.58 89.37L169.31 89.37"
     fill="none"
     stroke="black"
     stroke-width="0.5000"
     id="path222"
     style="stroke-width:0.13229166;stroke-miterlimit:4;stroke-dasharray:none" />
  <path
     d="M169.31 88.97L125.58 88.97"
     fill="none"
     stroke="black"
     stroke-width="0.5000"
     id="path224"
     style="stroke-width:0.13229166;stroke-miterlimit:4;stroke-dasharray:none" />
  <path
     d="M169.31 31.99L125.58 31.99"
     fill="none"
     stroke="black"
     stroke-width="0.5000"
     id="path226"
     style="stroke-width:0.13229166;stroke-miterlimit:4;stroke-dasharray:none" />
  <path
     d="M125.58 32.38L169.31 32.38"
     fill="none"
     stroke="black"
     stroke-width="0.5000"
     id="path228"
     style="stroke-width:0.13229166;stroke-miterlimit:4;stroke-dasharray:none" />
  <path
     d="M125.58 84.99L169.31 84.99"
     fill="none"
     stroke="black"
     stroke-width="0.5000"
     id="path230"
     style="stroke-width:0.13229166;stroke-miterlimit:4;stroke-dasharray:none" />
  <path
     d="M169.31 84.59L125.58 84.59"
     fill="none"
     stroke="black"
     stroke-width="0.5000"
     id="path232"
     style="stroke-width:0.13229166;stroke-miterlimit:4;stroke-dasharray:none" />
  <path
     d="M169.31 27.6L125.58 27.6"
     fill="none"
     stroke="black"
     stroke-width="0.5000"
     id="path234"
     style="stroke-width:0.13229166;stroke-miterlimit:4;stroke-dasharray:none" />
  <path
     d="M125.58 28L169.31 28"
     fill="none"
     stroke="black"
     stroke-width="0.5000"
     id="path236"
     style="stroke-width:0.13229166;stroke-miterlimit:4;stroke-dasharray:none" />
  <path
     d="M125.58 80.61L169.31 80.61"
     fill="none"
     stroke="black"
     stroke-width="0.5000"
     id="path238"
     style="stroke-width:0.13229166;stroke-miterlimit:4;stroke-dasharray:none" />
  <path
     d="M169.31 80.21L125.58 80.21"
     fill="none"
     stroke="black"
     stroke-width="0.5000"
     id="path240"
     style="stroke-width:0.13229166;stroke-miterlimit:4;stroke-dasharray:none" />
  <path
     d="M125.58 76.22L169.31 76.22"
     fill="none"
     stroke="black"
     stroke-width="0.5000"
     id="path242"
     style="stroke-width:0.13229166;stroke-miterlimit:4;stroke-dasharray:none" />
  <path
     d="M169.31 75.82L125.58 75.82"
     fill="none"
     stroke="black"
     stroke-width="0.5000"
     id="path244"
     style="stroke-width:0.13229166;stroke-miterlimit:4;stroke-dasharray:none" />
  <path
     d="M125.58 67.45L169.31 67.45"
     fill="none"
     stroke="black"
     stroke-width="0.5000"
     id="path246"
     style="stroke-width:0.13229166;stroke-miterlimit:4;stroke-dasharray:none" />
  <path
     d="M169.31 67.06L125.58 67.06"
     fill="none"
     stroke="black"
     stroke-width="0.5000"
     id="path248"
     style="stroke-width:0.13229166;stroke-miterlimit:4;stroke-dasharray:none" />
  <path
     d="M125.58 54.3L169.31 54.3"
     fill="none"
     stroke="black"
     stroke-width="0.5000"
     id="path250"
     style="stroke-width:0.13229166;stroke-miterlimit:4;stroke-dasharray:none" />
  <path
     d="M169.31 53.9L125.58 53.9"
     fill="none"
     stroke="black"
     stroke-width="0.5000"
     id="path252"
     style="stroke-width:0.13229166;stroke-miterlimit:4;stroke-dasharray:none" />
  <path
     d="M169.31 109.7L125.58 109.7"
     fill="none"
     stroke="black"
     stroke-width="0.5000"
     id="path254"
     style="stroke-width:0.13229166;stroke-miterlimit:4;stroke-dasharray:none" />
  <path
     d="M125.58 26.01L169.31 26.01"
     fill="none"
     stroke="black"
     stroke-width="0.5000"
     id="path256"
     style="stroke-width:0.13229166;stroke-miterlimit:4;stroke-dasharray:none" />
  <path
     d="M170.41 26.01L170.91 26.01"
     fill="none"
     stroke="black"
     stroke-width="0.5000"
     id="path258"
     style="stroke-width:0.13229166;stroke-miterlimit:4;stroke-dasharray:none" />
  <path
     d="M170.91 26.01L170.91 109.7"
     fill="none"
     stroke="black"
     stroke-width="0.5000"
     id="path260"
     style="stroke-width:0.13229166;stroke-miterlimit:4;stroke-dasharray:none" />
  <path
     d="M170.91 109.7L170.41 109.7"
     fill="none"
     stroke="black"
     stroke-width="0.5000"
     id="path262"
     style="stroke-width:0.13229166;stroke-miterlimit:4;stroke-dasharray:none" />
  <path
     d="M124.48 109.7L123.98 109.7"
     fill="none"
     stroke="black"
     stroke-width="0.5000"
     id="path264"
     style="stroke-width:0.13229166;stroke-miterlimit:4;stroke-dasharray:none" />
  <path
     d="M123.98 109.7L123.98 26.01"
     fill="none"
     stroke="black"
     stroke-width="0.5000"
     id="path266"
     style="stroke-width:0.13229166;stroke-miterlimit:4;stroke-dasharray:none" />
  <path
     d="M123.98 26.01L124.48 26.01"
     fill="none"
     stroke="black"
     stroke-width="0.5000"
     id="path268"
     style="stroke-width:0.13229166;stroke-miterlimit:4;stroke-dasharray:none" />
  <path
     d="M123.98 17.55L127.27 17.05 127.27 17.05 127.27 18.06 123.98 17.55Z"
     fill-rule="evenodd"
     fill="black"
     id="path270"
     style="stroke-width:0.13229166;stroke-miterlimit:4;stroke-dasharray:none" />
  <path
     d="M170.91 17.55L167.62 18.06 167.62 18.06 167.62 17.05 170.91 17.55Z"
     fill-rule="evenodd"
     fill="black"
     id="path272"
     style="stroke-width:0.13229166;stroke-miterlimit:4;stroke-dasharray:none" />
  <path
     d="M123.98 25.01L123.98 16.56"
     fill="none"
     stroke="black"
     stroke-width="0.5000"
     id="path274"
     style="stroke-width:0.13229166;stroke-miterlimit:4;stroke-dasharray:none" />
  <path
     d="M170.91 25.01L170.91 16.56"
     fill="none"
     stroke="black"
     stroke-width="0.5000"
     id="path276"
     style="stroke-width:0.13229166;stroke-miterlimit:4;stroke-dasharray:none" />
  <path
     d="M123.98 17.55L170.91 17.55"
     fill="none"
     stroke="black"
     stroke-width="0.5000"
     id="path278"
     style="stroke-width:0.13229166;stroke-miterlimit:4;stroke-dasharray:none" />
  <path
     d="M147.45 17.55L99.39 4.74"
     fill="none"
     stroke="black"
     stroke-width="0.5000"
     id="path280"
     style="stroke-width:0.13229166;stroke-miterlimit:4;stroke-dasharray:none" />
  <path
     d="M99.39 4.74L71.55 4.74"
     fill="none"
     stroke="black"
     stroke-width="0.5000"
     id="path282"
     style="stroke-width:0.13229166;stroke-miterlimit:4;stroke-dasharray:none" />
  <path
     d="M71.55 4.89L71.55 1.41M71.55 1.99L71.98 1.41M71.98 1.41L72.85 1.41M72.85 1.41L73.29 1.99M73.29 1.99L73.29 3.15M73.29 3.15L72.85 3.73M72.85 3.73L71.55 3.73M75.03 3.73L74.6 3.73M74.6 3.73L74.16 3.15M74.16 3.15L74.16 1.99M74.16 1.99L74.6 1.41M74.6 1.41L75.03 1.41M75.03 1.41L75.47 1.99M75.47 1.99L75.47 3.15M75.47 3.15L75.03 3.73M75.47 3.15L75.91 3.73M76.78 3.73L76.78 1.41M76.78 2.57L77.65 1.41M77.65 1.41L78.08 1.41M78.08 1.41L78.52 1.99M78.52 1.99L78.52 3.73M79.39 2.57L80.7 2.57M80.7 2.57L81.14 1.99M81.14 1.99L80.7 1.41M80.7 1.41L79.83 1.41M79.83 1.41L79.39 1.99M79.39 1.99L79.39 3.15M79.39 3.15L79.83 3.73M79.83 3.73L80.7 3.73M82.01 0.24L82.01 3.15M82.01 3.15L82.44 3.73M83.32 4.31L85.06 4.31M85.93 1.41L86.37 3.73M86.37 3.73L86.8 1.41M86.8 1.41L87.24 3.73M87.24 3.73L87.67 1.41M88.55 3.73L88.55 1.41M88.55 0.83L88.55 0.24M91.16 2.57L90.29 3.73M90.29 3.73L89.85 3.73M89.85 3.73L89.42 3.15M89.42 3.15L89.42 1.99M89.42 1.99L89.85 1.41M89.85 1.41L90.29 1.41M90.29 1.41L91.16 2.57M91.16 0.24L91.16 3.73M92.03 1.41L93.78 1.41M92.9 0.24L92.9 3.15M92.9 3.15L93.34 3.73M93.34 3.73L93.78 3.15M94.65 3.73L94.65 0.24M94.65 2.57L95.52 1.41M95.52 1.41L95.96 1.41M95.96 1.41L96.39 1.99M96.39 1.99L96.39 3.73"
     fill="none"
     stroke="black"
     stroke-width="0.5000"
     id="path284"
     style="stroke-width:0.13229166;stroke-miterlimit:4;stroke-dasharray:none" />
  <path
     d="M119.56 109.7L119.05 106.41 119.05 106.41 120.06 106.41 119.56 109.7Z"
     fill-rule="evenodd"
     fill="black"
     id="path286"
     style="stroke-width:0.13229166;stroke-miterlimit:4;stroke-dasharray:none" />
  <path
     d="M119.56 26.01L120.06 29.3 120.06 29.3 119.05 29.3 119.56 26.01Z"
     fill-rule="evenodd"
     fill="black"
     id="path288"
     style="stroke-width:0.13229166;stroke-miterlimit:4;stroke-dasharray:none" />
  <path
     d="M122.99 109.7L118.56 109.7"
     fill="none"
     stroke="black"
     stroke-width="0.5000"
     id="path290"
     style="stroke-width:0.13229166;stroke-miterlimit:4;stroke-dasharray:none" />
  <path
     d="M122.99 26.01L118.56 26.01"
     fill="none"
     stroke="black"
     stroke-width="0.5000"
     id="path292"
     style="stroke-width:0.13229166;stroke-miterlimit:4;stroke-dasharray:none" />
  <path
     d="M119.56 109.7L119.56 26.01"
     fill="none"
     stroke="black"
     stroke-width="0.5000"
     id="path294"
     style="stroke-width:0.13229166;stroke-miterlimit:4;stroke-dasharray:none" />
  <path
     d="M119.56 67.85L100.4 54.32"
     fill="none"
     stroke="black"
     stroke-width="0.5000"
     id="path296"
     style="stroke-width:0.13229166;stroke-miterlimit:4;stroke-dasharray:none" />
  <path
     d="M100.4 54.32L70.62 54.32"
     fill="none"
     stroke="black"
     stroke-width="0.5000"
     id="path298"
     style="stroke-width:0.13229166;stroke-miterlimit:4;stroke-dasharray:none" />
  <path
     d="M70.62 54.47L70.62 50.98M70.62 51.57L71.06 50.98M71.06 50.98L71.93 50.98M71.93 50.98L72.37 51.57M72.37 51.57L72.37 52.73M72.37 52.73L71.93 53.31M71.93 53.31L70.62 53.31M74.11 53.31L73.68 53.31M73.68 53.31L73.24 52.73M73.24 52.73L73.24 51.57M73.24 51.57L73.68 50.98M73.68 50.98L74.11 50.98M74.11 50.98L74.55 51.57M74.55 51.57L74.55 52.73M74.55 52.73L74.11 53.31M74.55 52.73L74.98 53.31M75.85 53.31L75.85 50.98M75.85 52.15L76.73 50.98M76.73 50.98L77.16 50.98M77.16 50.98L77.6 51.57M77.6 51.57L77.6 53.31M78.47 52.15L79.78 52.15M79.78 52.15L80.21 51.57M80.21 51.57L79.78 50.98M79.78 50.98L78.91 50.98M78.91 50.98L78.47 51.57M78.47 51.57L78.47 52.73M78.47 52.73L78.91 53.31M78.91 53.31L79.78 53.31M81.09 49.82L81.09 52.73M81.09 52.73L81.52 53.31M82.39 53.89L84.14 53.89M85.01 49.82L85.01 52.73M85.01 52.73L85.44 53.31M86.32 52.15L87.62 52.15M87.62 52.15L88.06 51.57M88.06 51.57L87.62 50.98M87.62 50.98L86.75 50.98M86.75 50.98L86.32 51.57M86.32 51.57L86.32 52.73M86.32 52.73L86.75 53.31M86.75 53.31L87.62 53.31M88.93 53.31L88.93 50.98M88.93 52.15L89.8 50.98M89.8 50.98L90.24 50.98M90.24 50.98L90.67 51.57M90.67 51.57L90.67 53.31M91.55 53.89L91.98 54.47M91.98 54.47L92.85 54.47M92.85 54.47L93.29 53.89M93.29 53.89L93.29 51.57M93.29 51.57L92.85 50.98M92.85 50.98L91.98 50.98M91.98 50.98L91.55 51.57M91.55 51.57L91.55 52.73M91.55 52.73L91.98 53.31M91.98 53.31L93.29 53.31M94.16 50.98L95.91 50.98M95.03 49.82L95.03 52.73M95.03 52.73L95.47 53.31M95.47 53.31L95.91 52.73M96.78 53.31L96.78 49.82M96.78 52.15L97.65 50.98M97.65 50.98L98.08 50.98M98.08 50.98L98.52 51.57M98.52 51.57L98.52 53.31"
     fill="none"
     stroke="black"
     stroke-width="0.5000"
     id="path300"
     style="stroke-width:0.13229166;stroke-miterlimit:4;stroke-dasharray:none" />
  <path
     d="M124.48 118.62L127.77 118.12 127.77 118.12 127.77 119.13 124.48 118.62Z"
     fill-rule="evenodd"
     fill="black"
     id="path302"
     style="stroke-width:0.13229166;stroke-miterlimit:4;stroke-dasharray:none" />
  <path
     d="M170.41 118.62L167.12 119.13 167.12 119.13 167.12 118.12 170.41 118.62Z"
     fill-rule="evenodd"
     fill="black"
     id="path304"
     style="stroke-width:0.13229166;stroke-miterlimit:4;stroke-dasharray:none" />
  <path
     d="M124.48 113.68L124.48 119.62"
     fill="none"
     stroke="black"
     stroke-width="0.5000"
     id="path306"
     style="stroke-width:0.13229166;stroke-miterlimit:4;stroke-dasharray:none" />
  <path
     d="M170.41 113.68L170.41 119.62"
     fill="none"
     stroke="black"
     stroke-width="0.5000"
     id="path308"
     style="stroke-width:0.13229166;stroke-miterlimit:4;stroke-dasharray:none" />
  <path
     d="M124.48 118.62L170.41 118.62"
     fill="none"
     stroke="black"
     stroke-width="0.5000"
     id="path310"
     style="stroke-width:0.13229166;stroke-miterlimit:4;stroke-dasharray:none" />
  <path
     d="M147.45 118.62L96.5 130.8"
     fill="none"
     stroke="black"
     stroke-width="0.5000"
     id="path312"
     style="stroke-width:0.13229166;stroke-miterlimit:4;stroke-dasharray:none" />
  <path
     d="M96.5 130.8L73.14 130.8"
     fill="none"
     stroke="black"
     stroke-width="0.5000"
     id="path314"
     style="stroke-width:0.13229166;stroke-miterlimit:4;stroke-dasharray:none" />
  <path
     d="M73.14 130.38L73.58 130.96M73.58 130.96L74.45 130.96M74.45 130.96L74.89 130.38M74.89 130.38L74.89 128.05M74.89 128.05L74.45 127.47M74.45 127.47L73.58 127.47M73.58 127.47L73.14 128.05M73.14 128.05L73.14 129.21M73.14 129.21L73.58 129.79M73.58 129.79L74.89 129.79M75.76 129.79L75.76 127.47M75.76 128.63L76.63 127.47M76.63 127.47L77.07 127.47M77.07 127.47L77.5 128.05M78.38 129.79L78.38 127.47M78.38 126.89L78.38 126.31M80.99 128.63L80.12 129.79M80.12 129.79L79.68 129.79M79.68 129.79L79.25 129.21M79.25 129.21L79.25 128.05M79.25 128.05L79.68 127.47M79.68 127.47L80.12 127.47M80.12 127.47L80.99 128.63M80.99 126.31L80.99 129.79M81.86 130.38L83.61 130.38M84.48 127.47L84.91 129.79M84.91 129.79L85.35 127.47M85.35 127.47L85.79 129.79M85.79 129.79L86.22 127.47M87.09 129.79L87.09 127.47M87.09 126.89L87.09 126.31M89.71 128.63L88.84 129.79M88.84 129.79L88.4 129.79M88.4 129.79L87.96 129.21M87.96 129.21L87.96 128.05M87.96 128.05L88.4 127.47M88.4 127.47L88.84 127.47M88.84 127.47L89.71 128.63M89.71 126.31L89.71 129.79M90.58 127.47L92.32 127.47M91.45 126.31L91.45 129.21M91.45 129.21L91.89 129.79M91.89 129.79L92.32 129.21M93.2 129.79L93.2 126.31M93.2 128.63L94.07 127.47M94.07 127.47L94.5 127.47M94.5 127.47L94.94 128.05M94.94 128.05L94.94 129.79"
     fill="none"
     stroke="black"
     stroke-width="0.5000"
     id="path316"
     style="stroke-width:0.13229166;stroke-miterlimit:4;stroke-dasharray:none" />
  <path
     d="M119.56 23.02L119.05 19.73 119.05 19.73 120.07 19.73 119.56 23.02Z"
     fill-rule="evenodd"
     fill="black"
     id="path318"
     style="stroke-width:0.13229166;stroke-miterlimit:4;stroke-dasharray:none" />
  <path
     d="M119.56 26.01L120.07 29.3 120.07 29.3 119.05 29.3 119.56 26.01Z"
     fill-rule="evenodd"
     fill="black"
     id="path320"
     style="stroke-width:0.13229166;stroke-miterlimit:4;stroke-dasharray:none" />
  <path
     d="M123.48 23.02L118.56 23.02"
     fill="none"
     stroke="black"
     stroke-width="0.5000"
     id="path322"
     style="stroke-width:0.13229166;stroke-miterlimit:4;stroke-dasharray:none" />
  <path
     d="M122.99 26.01L118.56 26.01"
     fill="none"
     stroke="black"
     stroke-width="0.5000"
     id="path324"
     style="stroke-width:0.13229166;stroke-miterlimit:4;stroke-dasharray:none" />
  <path
     d="M119.56 23.02L119.56 16.69"
     fill="none"
     stroke="black"
     stroke-width="0.5000"
     id="path326"
     style="stroke-width:0.13229166;stroke-miterlimit:4;stroke-dasharray:none" />
  <path
     d="M119.56 23.02L119.56 26.01"
     fill="none"
     stroke="black"
     stroke-width="0.5000"
     id="path328"
     style="stroke-width:0.13229166;stroke-miterlimit:4;stroke-dasharray:none" />
  <path
     d="M119.56 26.01L119.56 32.33"
     fill="none"
     stroke="black"
     stroke-width="0.5000"
     id="path330"
     style="stroke-width:0.13229166;stroke-miterlimit:4;stroke-dasharray:none" />
  <path
     d="M119.56 24.51L107.13 19.76"
     fill="none"
     stroke="black"
     stroke-width="0.5000"
     id="path332"
     style="stroke-width:0.13229166;stroke-miterlimit:4;stroke-dasharray:none" />
  <path
     d="M107.13 19.76L63.76 19.76"
     fill="none"
     stroke="black"
     stroke-width="0.5000"
     id="path334"
     style="stroke-width:0.13229166;stroke-miterlimit:4;stroke-dasharray:none" />
  <path
     d="M63.76 18.75L63.76 15.26M63.76 17.59L64.63 16.42M64.63 16.42L65.07 16.42M65.07 16.42L65.5 17.01M65.5 17.01L65.5 18.75M66.37 17.59L67.68 17.59M67.68 17.59L68.12 17.01M68.12 17.01L67.68 16.42M67.68 16.42L66.81 16.42M66.81 16.42L66.37 17.01M66.37 17.01L66.37 18.17M66.37 18.17L66.81 18.75M66.81 18.75L67.68 18.75M69.86 18.75L69.43 18.75M69.43 18.75L68.99 18.17M68.99 18.17L68.99 17.01M68.99 17.01L69.43 16.42M69.43 16.42L69.86 16.42M69.86 16.42L70.3 17.01M70.3 17.01L70.3 18.17M70.3 18.17L69.86 18.75M70.3 18.17L70.73 18.75M73.35 17.59L72.48 18.75M72.48 18.75L72.04 18.75M72.04 18.75L71.61 18.17M71.61 18.17L71.61 17.01M71.61 17.01L72.04 16.42M72.04 16.42L72.48 16.42M72.48 16.42L73.35 17.59M73.35 15.26L73.35 18.75M74.22 17.59L75.53 17.59M75.53 17.59L75.96 17.01M75.96 17.01L75.53 16.42M75.53 16.42L74.66 16.42M74.66 16.42L74.22 17.01M74.22 17.01L74.22 18.17M74.22 18.17L74.66 18.75M74.66 18.75L75.53 18.75M76.84 18.75L76.84 16.42M76.84 17.59L77.71 16.42M77.71 16.42L78.14 16.42M78.14 16.42L78.58 17.01M79.45 19.33L81.19 19.33M82.07 17.59L83.37 17.59M83.37 17.59L83.81 17.01M83.81 17.01L83.37 16.42M83.37 16.42L82.5 16.42M82.5 16.42L82.07 17.01M82.07 17.01L82.07 18.17M82.07 18.17L82.5 18.75M82.5 18.75L83.37 18.75M84.68 18.75L86.43 16.42M84.68 16.42L86.43 18.75M87.3 18.75L87.3 16.42M87.3 15.84L87.3 15.26M88.17 16.42L89.91 16.42M89.04 15.26L89.04 18.17M89.04 18.17L89.48 18.75M89.48 18.75L89.91 18.17M90.78 19.33L92.53 19.33M93.4 15.26L93.4 18.17M93.4 18.17L93.84 18.75M94.71 17.59L96.01 17.59M96.01 17.59L96.45 17.01M96.45 17.01L96.01 16.42M96.01 16.42L95.14 16.42M95.14 16.42L94.71 17.01M94.71 17.01L94.71 18.17M94.71 18.17L95.14 18.75M95.14 18.75L96.01 18.75M97.32 18.75L97.32 16.42M97.32 17.59L98.19 16.42M98.19 16.42L98.63 16.42M98.63 16.42L99.07 17.01M99.07 17.01L99.07 18.75M99.94 19.33L100.37 19.91M100.37 19.91L101.25 19.91M101.25 19.91L101.68 19.33M101.68 19.33L101.68 17.01M101.68 17.01L101.25 16.42M101.25 16.42L100.37 16.42M100.37 16.42L99.94 17.01M99.94 17.01L99.94 18.17M99.94 18.17L100.37 18.75M100.37 18.75L101.68 18.75M102.55 16.42L104.3 16.42M103.42 15.26L103.42 18.17M103.42 18.17L103.86 18.75M103.86 18.75L104.3 18.17M105.17 18.75L105.17 15.26M105.17 17.59L106.04 16.42M106.04 16.42L106.48 16.42M106.48 16.42L106.91 17.01M106.91 17.01L106.91 18.75"
     fill="none"
     stroke="black"
     stroke-width="0.5000"
     id="path336"
     style="stroke-width:0.13229166;stroke-miterlimit:4;stroke-dasharray:none" />
  <path
     d="M114.17 23.02L114.68 26.31 114.68 26.31 113.67 26.31 114.17 23.02Z"
     fill-rule="evenodd"
     fill="black"
     id="path338"
     style="stroke-width:0.13229166;stroke-miterlimit:4;stroke-dasharray:none" />
  <path
     d="M114.17 112.69L113.67 109.4 113.67 109.4 114.68 109.4 114.17 112.69Z"
     fill-rule="evenodd"
     fill="black"
     id="path340"
     style="stroke-width:0.13229166;stroke-miterlimit:4;stroke-dasharray:none" />
  <path
     d="M123.48 23.02L113.18 23.02"
     fill="none"
     stroke="black"
     stroke-width="0.5000"
     id="path342"
     style="stroke-width:0.13229166;stroke-miterlimit:4;stroke-dasharray:none" />
  <path
     d="M123.48 112.69L113.18 112.69"
     fill="none"
     stroke="black"
     stroke-width="0.5000"
     id="path344"
     style="stroke-width:0.13229166;stroke-miterlimit:4;stroke-dasharray:none" />
  <path
     d="M114.17 23.02L114.17 112.69"
     fill="none"
     stroke="black"
     stroke-width="0.5000"
     id="path346"
     style="stroke-width:0.13229166;stroke-miterlimit:4;stroke-dasharray:none" />
  <path
     d="M114.17 67.85L98.51 81.18"
     fill="none"
     stroke="black"
     stroke-width="0.5000"
     id="path348"
     style="stroke-width:0.13229166;stroke-miterlimit:4;stroke-dasharray:none" />
  <path
     d="M98.51 81.18L73.22 81.18"
     fill="none"
     stroke="black"
     stroke-width="0.5000"
     id="path350"
     style="stroke-width:0.13229166;stroke-miterlimit:4;stroke-dasharray:none" />
  <path
     d="M73.22 80.75L73.65 81.34M73.65 81.34L74.53 81.34M74.53 81.34L74.96 80.75M74.96 80.75L74.96 78.43M74.96 78.43L74.53 77.85M74.53 77.85L73.65 77.85M73.65 77.85L73.22 78.43M73.22 78.43L73.22 79.59M73.22 79.59L73.65 80.17M73.65 80.17L74.96 80.17M75.83 80.17L75.83 77.85M75.83 79.01L76.7 77.85M76.7 77.85L77.14 77.85M77.14 77.85L77.58 78.43M78.45 80.17L78.45 77.85M78.45 77.27L78.45 76.69M81.06 79.01L80.19 80.17M80.19 80.17L79.76 80.17M79.76 80.17L79.32 79.59M79.32 79.59L79.32 78.43M79.32 78.43L79.76 77.85M79.76 77.85L80.19 77.85M80.19 77.85L81.06 79.01M81.06 76.69L81.06 80.17M81.94 80.75L83.68 80.75M84.55 76.69L84.55 79.59M84.55 79.59L84.99 80.17M85.86 79.01L87.17 79.01M87.17 79.01L87.6 78.43M87.6 78.43L87.17 77.85M87.17 77.85L86.29 77.85M86.29 77.85L85.86 78.43M85.86 78.43L85.86 79.59M85.86 79.59L86.29 80.17M86.29 80.17L87.17 80.17M88.47 80.17L88.47 77.85M88.47 79.01L89.35 77.85M89.35 77.85L89.78 77.85M89.78 77.85L90.22 78.43M90.22 78.43L90.22 80.17M91.09 80.75L91.52 81.34M91.52 81.34L92.4 81.34M92.4 81.34L92.83 80.75M92.83 80.75L92.83 78.43M92.83 78.43L92.4 77.85M92.4 77.85L91.52 77.85M91.52 77.85L91.09 78.43M91.09 78.43L91.09 79.59M91.09 79.59L91.52 80.17M91.52 80.17L92.83 80.17M93.7 77.85L95.45 77.85M94.58 76.69L94.58 79.59M94.58 79.59L95.01 80.17M95.01 80.17L95.45 79.59M96.32 80.17L96.32 76.69M96.32 79.01L97.19 77.85M97.19 77.85L97.63 77.85M97.63 77.85L98.06 78.43M98.06 78.43L98.06 80.17"
     fill="none"
     stroke="black"
     stroke-width="0.5000"
     id="path352"
     style="stroke-width:0.13229166;stroke-miterlimit:4;stroke-dasharray:none" />
</svg>
